<mxfile host="Electron" agent="Mozilla/5.0 (Macintosh; Intel Mac OS X 10_15_7) AppleWebKit/537.36 (KHTML, like Gecko) draw.io/26.2.2 Chrome/134.0.6998.178 Electron/35.1.2 Safari/537.36" version="26.2.2">
  <diagram name="Page-1" id="QFavr57-UdfwdZ4FQssH">
    <mxGraphModel dx="3182" dy="1957" grid="1" gridSize="10" guides="1" tooltips="1" connect="1" arrows="1" fold="1" page="1" pageScale="1" pageWidth="850" pageHeight="1100" math="0" shadow="0">
      <root>
        <mxCell id="0" />
        <mxCell id="1" parent="0" />
        <mxCell id="px7jJO8oFTi3VKJdg5Cx-38" value="" style="rounded=0;whiteSpace=wrap;html=1;strokeWidth=3;" vertex="1" parent="1">
          <mxGeometry x="630" y="590" width="1590" height="930" as="geometry" />
        </mxCell>
        <mxCell id="px7jJO8oFTi3VKJdg5Cx-6" value="" style="endArrow=oval;html=1;rounded=0;exitX=0.044;exitY=0.872;exitDx=0;exitDy=0;exitPerimeter=0;entryX=0.343;entryY=0.648;entryDx=0;entryDy=0;entryPerimeter=0;strokeWidth=5;startArrow=oval;startFill=1;endFill=1;endSize=10;startSize=10;" edge="1" parent="1">
          <mxGeometry width="50" height="50" relative="1" as="geometry">
            <mxPoint x="710" y="1410.06" as="sourcePoint" />
            <mxPoint x="890.8765700000004" y="1279.7600000000002" as="targetPoint" />
          </mxGeometry>
        </mxCell>
        <mxCell id="px7jJO8oFTi3VKJdg5Cx-7" value="" style="endArrow=oval;html=1;rounded=0;exitX=0.044;exitY=0.872;exitDx=0;exitDy=0;exitPerimeter=0;strokeWidth=5;startArrow=oval;startFill=1;endFill=1;endSize=10;startSize=10;" edge="1" parent="1">
          <mxGeometry width="50" height="50" relative="1" as="geometry">
            <mxPoint x="890" y="1280.06" as="sourcePoint" />
            <mxPoint x="960" y="1230" as="targetPoint" />
          </mxGeometry>
        </mxCell>
        <mxCell id="px7jJO8oFTi3VKJdg5Cx-8" value="" style="endArrow=oval;html=1;rounded=0;exitX=0.044;exitY=0.872;exitDx=0;exitDy=0;exitPerimeter=0;strokeWidth=5;startArrow=oval;startFill=1;endFill=1;endSize=10;startSize=10;entryX=0.491;entryY=0.519;entryDx=0;entryDy=0;entryPerimeter=0;" edge="1" parent="1">
          <mxGeometry width="50" height="50" relative="1" as="geometry">
            <mxPoint x="960" y="1230.06" as="sourcePoint" />
            <mxPoint x="1210.5550899999998" y="1070.7800000000002" as="targetPoint" />
          </mxGeometry>
        </mxCell>
        <mxCell id="px7jJO8oFTi3VKJdg5Cx-9" value="" style="endArrow=oval;html=1;rounded=0;strokeWidth=5;startArrow=oval;startFill=1;endFill=1;endSize=10;startSize=10;exitX=0.352;exitY=0.457;exitDx=0;exitDy=0;exitPerimeter=0;" edge="1" parent="1">
          <mxGeometry width="50" height="50" relative="1" as="geometry">
            <mxPoint x="910.3164799999995" y="970.3400000000001" as="sourcePoint" />
            <mxPoint x="1210" y="1070" as="targetPoint" />
          </mxGeometry>
        </mxCell>
        <mxCell id="px7jJO8oFTi3VKJdg5Cx-10" value="" style="endArrow=oval;html=1;rounded=0;strokeWidth=5;startArrow=oval;startFill=1;endFill=1;endSize=10;startSize=10;exitX=0.352;exitY=0.457;exitDx=0;exitDy=0;exitPerimeter=0;" edge="1" parent="1">
          <mxGeometry width="50" height="50" relative="1" as="geometry">
            <mxPoint x="1210" y="1070" as="sourcePoint" />
            <mxPoint x="1340" y="1010" as="targetPoint" />
          </mxGeometry>
        </mxCell>
        <mxCell id="px7jJO8oFTi3VKJdg5Cx-11" value="" style="endArrow=oval;html=1;rounded=0;strokeWidth=5;startArrow=oval;startFill=1;endFill=1;endSize=10;startSize=10;exitX=0.352;exitY=0.457;exitDx=0;exitDy=0;exitPerimeter=0;" edge="1" parent="1">
          <mxGeometry width="50" height="50" relative="1" as="geometry">
            <mxPoint x="1100" y="870" as="sourcePoint" />
            <mxPoint x="1340" y="1010" as="targetPoint" />
          </mxGeometry>
        </mxCell>
        <mxCell id="px7jJO8oFTi3VKJdg5Cx-12" value="" style="endArrow=oval;html=1;rounded=0;strokeWidth=5;startArrow=oval;startFill=1;endFill=1;endSize=10;startSize=10;exitX=0.556;exitY=0.389;exitDx=0;exitDy=0;exitPerimeter=0;" edge="1" parent="1">
          <mxGeometry width="50" height="50" relative="1" as="geometry">
            <mxPoint x="1350.9544400000004" y="860.1799999999998" as="sourcePoint" />
            <mxPoint x="1340" y="1010" as="targetPoint" />
          </mxGeometry>
        </mxCell>
        <mxCell id="px7jJO8oFTi3VKJdg5Cx-13" value="" style="endArrow=oval;html=1;rounded=0;strokeWidth=5;startArrow=oval;startFill=1;endFill=1;endSize=10;startSize=10;exitX=0.556;exitY=0.389;exitDx=0;exitDy=0;exitPerimeter=0;entryX=0.551;entryY=0.66;entryDx=0;entryDy=0;entryPerimeter=0;" edge="1" parent="1">
          <mxGeometry width="50" height="50" relative="1" as="geometry">
            <mxPoint x="1341" y="1010" as="sourcePoint" />
            <mxPoint x="1340.15449" y="1299.2000000000003" as="targetPoint" />
          </mxGeometry>
        </mxCell>
        <mxCell id="px7jJO8oFTi3VKJdg5Cx-14" value="" style="endArrow=oval;html=1;rounded=0;strokeWidth=5;startArrow=oval;startFill=1;endFill=1;endSize=10;startSize=10;exitX=0.556;exitY=0.389;exitDx=0;exitDy=0;exitPerimeter=0;entryX=0.491;entryY=0.741;entryDx=0;entryDy=0;entryPerimeter=0;" edge="1" parent="1">
          <mxGeometry width="50" height="50" relative="1" as="geometry">
            <mxPoint x="1341" y="1300" as="sourcePoint" />
            <mxPoint x="1210.5550899999998" y="1430.42" as="targetPoint" />
          </mxGeometry>
        </mxCell>
        <mxCell id="px7jJO8oFTi3VKJdg5Cx-15" value="" style="endArrow=oval;html=1;rounded=0;strokeWidth=5;startArrow=oval;startFill=1;endFill=1;endSize=10;startSize=10;exitX=0.653;exitY=0.599;exitDx=0;exitDy=0;exitPerimeter=0;entryX=0.491;entryY=0.741;entryDx=0;entryDy=0;entryPerimeter=0;" edge="1" parent="1">
          <mxGeometry width="50" height="50" relative="1" as="geometry">
            <mxPoint x="1560.47347" y="1200.38" as="sourcePoint" />
            <mxPoint x="1340" y="1010" as="targetPoint" />
          </mxGeometry>
        </mxCell>
        <mxCell id="px7jJO8oFTi3VKJdg5Cx-16" value="" style="endArrow=oval;html=1;rounded=0;strokeWidth=5;startArrow=oval;startFill=1;endFill=1;endSize=10;startSize=10;" edge="1" parent="1">
          <mxGeometry width="50" height="50" relative="1" as="geometry">
            <mxPoint x="1340" y="1010" as="sourcePoint" />
            <mxPoint x="1640" y="930" as="targetPoint" />
          </mxGeometry>
        </mxCell>
        <mxCell id="px7jJO8oFTi3VKJdg5Cx-17" value="" style="endArrow=oval;html=1;rounded=0;strokeWidth=5;startArrow=oval;startFill=1;endFill=1;endSize=10;startSize=10;" edge="1" parent="1">
          <mxGeometry width="50" height="50" relative="1" as="geometry">
            <mxPoint x="1640" y="930" as="sourcePoint" />
            <mxPoint x="1990" y="890" as="targetPoint" />
          </mxGeometry>
        </mxCell>
        <mxCell id="px7jJO8oFTi3VKJdg5Cx-18" value="" style="endArrow=oval;html=1;rounded=0;strokeWidth=5;startArrow=oval;startFill=1;endFill=1;endSize=10;startSize=10;" edge="1" parent="1">
          <mxGeometry width="50" height="50" relative="1" as="geometry">
            <mxPoint x="1640" y="930" as="sourcePoint" />
            <mxPoint x="1810" y="1020" as="targetPoint" />
          </mxGeometry>
        </mxCell>
        <mxCell id="px7jJO8oFTi3VKJdg5Cx-19" value="&lt;font style=&quot;font-size: 50px;&quot;&gt;Genève&lt;/font&gt;" style="text;html=1;align=center;verticalAlign=middle;whiteSpace=wrap;rounded=0;" vertex="1" parent="1">
          <mxGeometry x="760" y="1430" width="60" height="30" as="geometry" />
        </mxCell>
        <mxCell id="px7jJO8oFTi3VKJdg5Cx-20" value="&lt;font style=&quot;font-size: 50px;&quot;&gt;Morges&lt;/font&gt;" style="text;html=1;align=center;verticalAlign=middle;whiteSpace=wrap;rounded=0;" vertex="1" parent="1">
          <mxGeometry x="790" y="1220" width="60" height="30" as="geometry" />
        </mxCell>
        <mxCell id="px7jJO8oFTi3VKJdg5Cx-21" value="&lt;font style=&quot;font-size: 50px;&quot;&gt;Lausanne&lt;/font&gt;" style="text;html=1;align=center;verticalAlign=middle;whiteSpace=wrap;rounded=0;" vertex="1" parent="1">
          <mxGeometry x="1050" y="1250" width="60" height="30" as="geometry" />
        </mxCell>
        <mxCell id="px7jJO8oFTi3VKJdg5Cx-24" value="&lt;font style=&quot;font-size: 50px;&quot;&gt;Yverdon-&lt;/font&gt;&lt;div&gt;&lt;font style=&quot;font-size: 50px;&quot;&gt;Les-Bains&lt;/font&gt;&lt;/div&gt;" style="text;html=1;align=center;verticalAlign=middle;whiteSpace=wrap;rounded=0;" vertex="1" parent="1">
          <mxGeometry x="730" y="890" width="300" height="30" as="geometry" />
        </mxCell>
        <mxCell id="px7jJO8oFTi3VKJdg5Cx-25" value="&lt;span style=&quot;font-size: 50px;&quot;&gt;Fribourg&lt;/span&gt;" style="text;html=1;align=center;verticalAlign=middle;whiteSpace=wrap;rounded=0;" vertex="1" parent="1">
          <mxGeometry x="1040" y="990" width="300" height="30" as="geometry" />
        </mxCell>
        <mxCell id="px7jJO8oFTi3VKJdg5Cx-26" value="&lt;span style=&quot;font-size: 50px;&quot;&gt;Neuchâtel&lt;/span&gt;" style="text;html=1;align=center;verticalAlign=middle;whiteSpace=wrap;rounded=0;" vertex="1" parent="1">
          <mxGeometry x="1010" y="810" width="300" height="30" as="geometry" />
        </mxCell>
        <mxCell id="px7jJO8oFTi3VKJdg5Cx-27" value="&lt;span style=&quot;font-size: 50px;&quot;&gt;B&lt;/span&gt;&lt;span style=&quot;color: rgba(0, 0, 0, 0); font-family: monospace; font-size: 0px; text-align: start; text-wrap-mode: nowrap;&quot;&gt;%3CmxGraphModel%3E%3Croot%3E%3CmxCell%20id%3D%220%22%2F%3E%3CmxCell%20id%3D%221%22%20parent%3D%220%22%2F%3E%3CmxCell%20id%3D%222%22%20value%3D%22%26lt%3Bspan%20style%3D%26quot%3Bfont-size%3A%2050px%3B%26quot%3B%26gt%3BNeuch%C3%A2tel%26lt%3B%2Fspan%26gt%3B%22%20style%3D%22text%3Bhtml%3D1%3Balign%3Dcenter%3BverticalAlign%3Dmiddle%3BwhiteSpace%3Dwrap%3Brounded%3D0%3B%22%20vertex%3D%221%22%20parent%3D%221%22%3E%3CmxGeometry%20x%3D%221010%22%20y%3D%22810%22%20width%3D%22300%22%20height%3D%2230%22%20as%3D%22geometry%22%2F%3E%3C%2FmxCell%3E%3C%2Froot%3E%3C%2FmxGraphModel%3E&lt;/span&gt;&lt;span style=&quot;font-size: 50px;&quot;&gt;ienne&lt;/span&gt;" style="text;html=1;align=center;verticalAlign=middle;whiteSpace=wrap;rounded=0;" vertex="1" parent="1">
          <mxGeometry x="1300" y="800" width="300" height="30" as="geometry" />
        </mxCell>
        <mxCell id="px7jJO8oFTi3VKJdg5Cx-28" value="&lt;span style=&quot;font-size: 50px;&quot;&gt;Bern&lt;/span&gt;" style="text;html=1;align=center;verticalAlign=middle;whiteSpace=wrap;rounded=0;" vertex="1" parent="1">
          <mxGeometry x="1290" y="1010" width="300" height="30" as="geometry" />
        </mxCell>
        <mxCell id="px7jJO8oFTi3VKJdg5Cx-29" value="&lt;span style=&quot;font-size: 50px;&quot;&gt;Luzern&lt;/span&gt;" style="text;html=1;align=center;verticalAlign=middle;whiteSpace=wrap;rounded=0;" vertex="1" parent="1">
          <mxGeometry x="1500" y="1180" width="300" height="30" as="geometry" />
        </mxCell>
        <mxCell id="px7jJO8oFTi3VKJdg5Cx-30" value="&lt;span style=&quot;font-size: 50px;&quot;&gt;Brig&lt;/span&gt;" style="text;html=1;align=center;verticalAlign=middle;whiteSpace=wrap;rounded=0;" vertex="1" parent="1">
          <mxGeometry x="1260" y="1290" width="300" height="30" as="geometry" />
        </mxCell>
        <mxCell id="px7jJO8oFTi3VKJdg5Cx-31" value="&lt;span style=&quot;font-size: 50px;&quot;&gt;Sion&lt;/span&gt;" style="text;html=1;align=center;verticalAlign=middle;whiteSpace=wrap;rounded=0;" vertex="1" parent="1">
          <mxGeometry x="990" y="1410" width="300" height="30" as="geometry" />
        </mxCell>
        <mxCell id="px7jJO8oFTi3VKJdg5Cx-32" value="&lt;span style=&quot;font-size: 50px;&quot;&gt;Zürich&lt;/span&gt;" style="text;html=1;align=center;verticalAlign=middle;whiteSpace=wrap;rounded=0;" vertex="1" parent="1">
          <mxGeometry x="1520" y="870" width="300" height="30" as="geometry" />
        </mxCell>
        <mxCell id="px7jJO8oFTi3VKJdg5Cx-33" value="&lt;span style=&quot;font-size: 50px;&quot;&gt;Chur&lt;/span&gt;" style="text;html=1;align=center;verticalAlign=middle;whiteSpace=wrap;rounded=0;" vertex="1" parent="1">
          <mxGeometry x="1720" y="1025" width="300" height="30" as="geometry" />
        </mxCell>
        <mxCell id="px7jJO8oFTi3VKJdg5Cx-34" value="&lt;span style=&quot;font-size: 50px;&quot;&gt;St-Gallen&lt;/span&gt;" style="text;html=1;align=center;verticalAlign=middle;whiteSpace=wrap;rounded=0;" vertex="1" parent="1">
          <mxGeometry x="1940" y="840" width="300" height="30" as="geometry" />
        </mxCell>
        <mxCell id="px7jJO8oFTi3VKJdg5Cx-39" style="edgeStyle=orthogonalEdgeStyle;rounded=0;orthogonalLoop=1;jettySize=auto;html=1;exitX=0.25;exitY=0;exitDx=0;exitDy=0;startArrow=classic;startFill=0;curved=1;strokeWidth=4;endArrow=none;" edge="1" parent="1" source="px7jJO8oFTi3VKJdg5Cx-36" target="px7jJO8oFTi3VKJdg5Cx-41">
          <mxGeometry relative="1" as="geometry">
            <mxPoint x="610" y="360" as="targetPoint" />
            <Array as="points">
              <mxPoint x="825" y="490" />
            </Array>
          </mxGeometry>
        </mxCell>
        <mxCell id="px7jJO8oFTi3VKJdg5Cx-36" value="&lt;blockquote style=&quot;margin: 0px 0px 0px 20px; border: none; padding: 0px;&quot;&gt;&lt;font style=&quot;font-size: 50px;&quot;&gt;Bern&lt;/font&gt;&lt;/blockquote&gt;" style="rounded=1;whiteSpace=wrap;html=1;align=left;strokeWidth=5;" vertex="1" parent="1">
          <mxGeometry x="700" y="630" width="500" height="60" as="geometry" />
        </mxCell>
        <mxCell id="px7jJO8oFTi3VKJdg5Cx-37" value="&lt;blockquote style=&quot;margin: 0px 0px 0px 20px; border: none; padding: 0px;&quot;&gt;&lt;font style=&quot;font-size: 50px;&quot;&gt;16 / 04 / 25 @ 11:00&lt;/font&gt;&lt;/blockquote&gt;" style="rounded=1;whiteSpace=wrap;html=1;align=left;strokeWidth=5;" vertex="1" parent="1">
          <mxGeometry x="700" y="690" width="500" height="60" as="geometry" />
        </mxCell>
        <mxCell id="px7jJO8oFTi3VKJdg5Cx-41" value="&lt;font style=&quot;font-size: 40px;&quot;&gt;Starting Station&lt;/font&gt;" style="text;html=1;align=center;verticalAlign=middle;resizable=0;points=[];autosize=1;strokeColor=none;fillColor=none;" vertex="1" parent="1">
          <mxGeometry x="920" y="460" width="300" height="60" as="geometry" />
        </mxCell>
        <mxCell id="px7jJO8oFTi3VKJdg5Cx-43" style="edgeStyle=orthogonalEdgeStyle;rounded=0;orthogonalLoop=1;jettySize=auto;html=1;entryX=1;entryY=0.5;entryDx=0;entryDy=0;curved=1;strokeWidth=4;" edge="1" parent="1" source="px7jJO8oFTi3VKJdg5Cx-42" target="px7jJO8oFTi3VKJdg5Cx-37">
          <mxGeometry relative="1" as="geometry">
            <Array as="points">
              <mxPoint x="1330" y="720" />
            </Array>
          </mxGeometry>
        </mxCell>
        <mxCell id="px7jJO8oFTi3VKJdg5Cx-42" value="&lt;font style=&quot;font-size: 40px;&quot;&gt;Starting Time&lt;/font&gt;" style="text;html=1;align=center;verticalAlign=middle;resizable=0;points=[];autosize=1;strokeColor=none;fillColor=none;" vertex="1" parent="1">
          <mxGeometry x="1260" y="460" width="260" height="60" as="geometry" />
        </mxCell>
      </root>
    </mxGraphModel>
  </diagram>
</mxfile>
